HIERARCHY
ROOT Hips
{
 OFFSET 0.000000 0.000000 0.000000
 CHANNELS 6 Xposition Yposition Zposition Yrotation Xrotation Zrotation
 JOINT Chest
 {
  OFFSET 0.000000 9.585900 0.002600
  CHANNELS 3 Yrotation Xrotation Zrotation
  JOINT Chest2
  {
   OFFSET 0.000000 9.601200 -0.005300
   CHANNELS 3 Yrotation Xrotation Zrotation
   JOINT Chest3
   {
    OFFSET 0.000000 9.561800 0.000000
    CHANNELS 3 Yrotation Xrotation Zrotation
    JOINT Chest4
    {
     OFFSET 0.000000 9.552100 0.000000
     CHANNELS 3 Yrotation Xrotation Zrotation
     JOINT Neck
     {
      OFFSET 0.000000 14.453000 0.000000
      CHANNELS 3 Yrotation Xrotation Zrotation
      JOINT Head
      {
       OFFSET 0.000000 8.936500 -0.011300
       CHANNELS 3 Yrotation Xrotation Zrotation
       End Site
       {
        OFFSET 0.000000 17.073600 -0.006000
       }
      }
     }
     JOINT RightCollar
     {
      OFFSET -2.921100 9.558500 0.000000
      CHANNELS 3 Yrotation Xrotation Zrotation
      JOINT RightShoulder
      {
       OFFSET -13.519700 0.000000 0.000000
       CHANNELS 3 Yrotation Xrotation Zrotation
       JOINT RightElbow
       {
        OFFSET 0.000000 -29.696600 0.000000
        CHANNELS 3 Yrotation Xrotation Zrotation
        JOINT RightWrist
        {
         OFFSET 0.000000 -24.004700 0.000000
         CHANNELS 3 Yrotation Xrotation Zrotation
         End Site
         {
          OFFSET 0.000000 -17.728500 0.000000
         }
        }
       }
      }
     }
     JOINT LeftCollar
     {
      OFFSET 2.921100 9.558500 0.000000
      CHANNELS 3 Yrotation Xrotation Zrotation
      JOINT LeftShoulder
      {
       OFFSET 13.519700 0.000000 0.000000
       CHANNELS 3 Yrotation Xrotation Zrotation
       JOINT LeftElbow
       {
        OFFSET 0.000000 -29.696600 0.000000
        CHANNELS 3 Yrotation Xrotation Zrotation
        JOINT LeftWrist
        {
         OFFSET 0.000000 -24.004700 0.000000
         CHANNELS 3 Yrotation Xrotation Zrotation
         End Site
         {
          OFFSET 0.000000 -17.728500 0.000000
         }
        }
       }
      }
     }
    }
   }
  }
 }
 JOINT RightHip
 {
  OFFSET -7.771700 -0.012900 -0.001300
  CHANNELS 3 Yrotation Xrotation Zrotation
  JOINT RightKnee
  {
   OFFSET 0.000000 -40.869800 0.001200
   CHANNELS 3 Yrotation Xrotation Zrotation
   JOINT RightAnkle
   {
    OFFSET 0.000000 -39.717900 0.002100
    CHANNELS 3 Yrotation Xrotation Zrotation
    JOINT RightToe
    {
     OFFSET 0.000000 -4.965400 11.033500
     CHANNELS 3 Yrotation Xrotation Zrotation
     End Site
     {
      OFFSET 0.000000 -1.423100 5.872300
     }
    }
   }
  }
 }
 JOINT LeftHip
 {
  OFFSET 7.771700 -0.012900 -0.001300
  CHANNELS 3 Yrotation Xrotation Zrotation
  JOINT LeftKnee
  {
   OFFSET 0.000000 -40.869800 0.001200
   CHANNELS 3 Yrotation Xrotation Zrotation
   JOINT LeftAnkle
   {
    OFFSET 0.000000 -39.717900 0.002100
    CHANNELS 3 Yrotation Xrotation Zrotation
    JOINT LeftToe
    {
     OFFSET 0.000000 -4.965400 11.033500
     CHANNELS 3 Yrotation Xrotation Zrotation
     End Site
     {
      OFFSET 0.000000 -1.423100 5.872300
     }
    }
   }
  }
 }
}
MOTION
Frames: 8
Frame Time: 0.008333
-11.709967 57.251573 29.885697 173.473435 -39.272531 -3.308053 3.673551 24.940146 2.281601 0.540697 4.028487 0.116516 0.848073 6.459624 0.196417 2.870164 20.845000 1.009867 0.527670 11.257000 -0.542257 1.207318 -14.855615 -1.247177 -1.378928 6.807582 1.508234 -2.556750 -19.718621 -6.368391 152.675219 -37.823478 -156.446413 9.948249 -18.579679 -55.889927 -3.201003 4.971201 1.586718 20.688079 -14.628146 0.567564 172.665466 -40.159649 -176.503375 -20.272099 -20.360429 44.911497 9.886566 -35.246563 2.695346 -1.837665 67.195039 -0.296907 5.380152 14.325311 5.677107 -0.187430 -8.605493 1.531398 -10.835872 -36.877159 2.053701 33.839894 72.532038 31.140377 -26.633426 3.440289 -5.023641 0.097880 -1.290767 0.141706
-11.722495 57.243979 29.911435 173.532311 -39.223685 -3.261675 3.632209 24.838896 2.222069 0.525481 4.044450 0.110534 0.844680 6.460692 0.194635 2.890215 20.821277 1.011243 0.497714 11.312273 -0.530310 1.324508 -14.823718 -1.292344 -1.553339 6.955502 1.463037 -2.894205 -19.545721 -6.137711 153.253872 -38.007350 -156.823698 9.872792 -18.636397 -55.928922 -2.977292 5.127819 1.686939 21.120996 -14.417589 0.393559 171.155188 -40.255937 -175.695082 -19.910466 -20.242391 44.770218 9.937033 -35.295306 2.576354 -1.870182 67.200860 -0.344022 5.379652 14.331308 5.715215 -0.185003 -8.605064 1.534233 -10.834773 -36.973210 1.965162 33.659210 72.490814 30.963387 -26.647890 3.718712 -5.099589 0.133916 -1.320449 0.153583
-11.721284 57.247186 29.924569 173.503466 -39.271739 -3.235712 3.679459 24.855704 2.235092 0.527574 4.038770 0.110404 0.848081 6.452182 0.194468 2.913445 20.795969 1.012849 0.508842 11.354126 -0.527479 1.396890 -14.718949 -1.293116 -1.738327 7.114682 1.419779 -3.202050 -19.350433 -5.886202 153.823109 -38.284797 -157.187275 9.792889 -18.687593 -55.999285 -2.760479 5.299719 1.779667 21.518352 -14.190803 0.233433 169.646903 -40.404256 -174.862089 -19.533265 -20.101037 44.603462 9.998016 -35.250406 2.584118 -1.857141 67.184658 -0.353839 5.350248 14.345233 5.755737 -0.187281 -8.606273 1.535338 -10.795850 -36.946986 1.944123 33.615179 72.482432 30.924622 -26.627928 3.887036 -5.126638 0.122738 -1.294448 0.145532
-11.720996 57.250940 29.934704 173.478692 -39.321105 -3.204690 3.721790 24.874925 2.239909 0.529961 4.032157 0.110314 0.852039 6.442216 0.194491 2.928832 20.781326 1.015164 0.595567 11.410913 -0.521460 1.367691 -14.595486 -1.257570 -1.922409 7.272837 1.376714 -3.478072 -19.128602 -5.613835 154.365636 -38.654231 -157.527643 9.707617 -18.730786 -56.102334 -2.536155 5.472961 1.863770 21.883692 -13.940482 0.086097 168.142748 -40.605184 -173.996745 -19.139299 -19.942127 44.412451 10.054514 -35.199431 2.569364 -1.876866 67.172897 -0.375161 5.348567 14.341116 5.778562 -0.188518 -8.595276 1.535859 -10.750415 -36.919611 1.910845 33.573227 72.473184 30.889927 -26.611655 4.055918 -5.157789 0.120873 -1.267214 0.142731
-11.741021 57.246108 29.949116 173.516218 -39.290930 -3.093191 3.648040 24.833478 2.102664 0.539839 4.017672 0.111399 0.838832 6.454494 0.193057 2.962602 20.742222 1.014600 0.616958 11.486981 -0.503482 1.399470 -14.454185 -1.230828 -2.109630 7.443998 1.338599 -3.728933 -18.883181 -5.318795 154.879983 -39.120753 -157.845899 9.613584 -18.760763 -56.221836 -2.311577 5.654571 1.948569 22.221013 -13.660420 -0.050732 166.628467 -40.863072 -173.086200 -18.733792 -19.763497 44.201292 10.145759 -35.227304 2.380448 -1.856845 67.210473 -0.365968 5.340309 14.316907 5.806492 -0.178479 -8.588187 1.535762 -10.662629 -36.997477 1.738117 33.415457 72.428305 30.749580 -26.649624 4.278182 -5.222676 0.156614 -1.244569 0.155600
-11.739005 57.244966 29.961027 173.536732 -39.285092 -3.097407 3.634462 24.822046 2.097234 0.565931 3.989391 0.116060 0.851929 6.432549 0.193139 2.943867 20.767790 1.017500 0.659287 11.543464 -0.494138 1.422040 -14.297266 -1.194183 -2.270719 7.596588 1.291791 -3.963088 -18.620921 -5.001881 155.360741 -39.699849 -158.142352 9.500993 -18.779324 -56.334416 -2.063694 5.806358 2.028174 22.524325 -13.348288 -0.177889 165.108925 -41.179390 -172.128576 -18.311134 -19.553035 43.969294 10.150809 -35.233086 2.378303 -1.858424 67.205291 -0.387380 5.323697 14.315340 5.832132 -0.174082 -8.582190 1.534427 -10.601865 -37.053469 1.697640 33.319633 72.443191 30.713045 -26.667739 4.512932 -5.251548 0.158320 -1.271636 0.149704
-11.738548 57.245145 29.968500 173.546823 -39.291826 -3.080112 3.646536 24.800670 2.090055 0.554504 4.001092 0.114186 0.885612 6.397127 0.194640 2.967208 20.751387 1.016836 0.661137 11.647502 -0.462010 1.435175 -14.131401 -1.149618 -2.466315 7.794969 1.263400 -4.188542 -18.346132 -4.663906 155.801299 -40.404969 -158.401812 9.358926 -18.787975 -56.432009 -1.858821 5.992972 2.128333 22.785986 -13.005233 -0.292892 163.597976 -41.558590 -171.132987 -17.862167 -19.305367 43.715200 10.153054 -35.224090 2.354045 -1.838525 67.208997 -0.380174 5.317860 14.303716 5.840305 -0.170136 -8.572357 1.532374 -10.550647 -37.082034 1.648663 33.225404 72.444596 30.655524 -26.677084 4.712269 -5.282745 0.167620 -1.266738 0.146212
-11.737774 57.245160 29.973724 173.550170 -39.297472 -3.057515 3.669431 24.778577 2.088820 0.538659 4.012436 0.108843 0.899191 6.385714 0.193637 3.011176 20.720912 1.015347 0.659784 11.750462 -0.428813 1.445041 -13.965314 -1.101659 -2.656439 7.987865 1.235635 -4.409400 -18.066008 -4.301018 156.205420 -41.244747 -158.605863 9.188765 -18.784998 -56.520831 -1.660168 6.165164 2.227761 23.011160 -12.633958 -0.394069 162.085754 -42.011708 -170.087560 -17.404042 -19.038198 43.443409 10.149986 -35.216954 2.331481 -1.812610 67.216732 -0.371514 5.317473 14.289109 5.845868 -0.170180 -8.562262 1.530205 -10.501899 -37.106162 1.602175 33.131702 72.443402 30.594010 -26.688866 4.893348 -5.313944 0.173519 -1.248705 0.143116
